<svg width="582px" height="231px" version="1.1" xmlns="http://www.w3.org/2000/svg"
  xmlns:xlink="http://www.w3.org/1999/xlink" xml:space="preserve" xmlns:serif="http://www.serif.com/"
  style="fill-rule:evenodd;clip-rule:evenodd;stroke-linejoin:round;stroke-miterlimit:2;">
  <g transform="matrix(1,0,0,1,-131.626,-182.614)">
    <g transform="matrix(1,0,0,1,204.315,291.647)">
      <path
        d="M0,-36.344L36.344,-36.344L36.344,-72.688L-36.344,-72.688L-36.344,-36.344L-72.688,-36.344L-72.688,36.344L72.688,36.344L72.688,0L0,0L0,-36.344Z"
        style="fill-rule:nonzero; fill:#E6DA5C" />
    </g>
    <g transform="matrix(1,0,0,1,0,24.362)">
      <rect x="422.38" y="267.285" width="72.688" height="36.344" style="fill-rule:nonzero; fill:#E6DA5C" />
    </g>
    <g transform="matrix(1,0,0,1,313.347,255.303)">
      <path d="M0,0L-36.344,0L-36.344,36.344L36.344,36.344L36.344,0L72.688,0L72.688,-36.344L0,-36.344L0,0Z"
        style="fill-rule:nonzero; fill:#E6DA5C" />
    </g>
    <g transform="matrix(1,0,0,1,495.068,291.647)">
      <path
        d="M0,-72.688L0,0L36.344,0L36.344,36.344L145.377,36.344L145.377,-36.344L36.344,-36.344L36.344,-72.688L0,-72.688Z"
        style="fill-rule:nonzero; fill:#E6DA5C" />
    </g>
    <g transform="matrix(-1,0,0,1,517.662,-193.704)">
      <rect x="240.659" y="376.318" width="36.344" height="36.344" style="fill-rule:nonzero; fill:#E6DA5C" />
    </g>
    <g transform="matrix(-1,0,0,1,808.416,-193.704)">
      <rect x="386.036" y="376.318" width="36.344" height="36.344" style="fill-rule:nonzero; fill:#E6DA5C" />
    </g>
    <g transform="matrix(1,0,0,1,0,-193.702)">
      <rect x="531.413" y="376.317" width="109.033" height="36.344" style="fill-rule:nonzero; fill:#E6DA5C" />
    </g>
    <g transform="matrix(1,0,0,1,0,-193.702)">
      <rect x="676.789" y="376.317" width="36.344" height="36.344" style="fill-rule:nonzero; fill:#E6DA5C" />
    </g>
    <g transform="matrix(1,0,0,1,131.626,373.34)">
      <path
        d="M0,12.857L0,-15.099L5.761,-15.099L5.761,12.432C5.761,16.374 10.673,19.77 12.795,19.77L17.344,19.77C19.405,19.77 24.317,16.253 24.317,12.432L24.317,-15.099L30.078,-15.099L30.078,12.857C30.078,18.86 22.013,27.956 18.01,27.956L12.25,27.956C8.247,27.956 0,18.86 0,12.857"
        style="fill-rule:nonzero; fill:#E6DA5C" />
    </g>
    <g transform="matrix(1,0,0,1,170.196,400.386)">
      <path
        d="M0,-30.017L8.49,-30.017L8.49,-27.167L14.251,-27.167C15.039,-28.44 16.676,-30.32 18.616,-30.32L20.496,-30.32C22.255,-30.32 24.681,-26.864 24.681,-24.923L24.681,0.303L19.223,0.303L19.223,-17.465C19.223,-20.436 15.888,-22.134 13.947,-22.134L10.733,-22.134C8.793,-22.134 5.458,-19.829 5.458,-17.222L5.458,0.303L0,0.303L0,-30.017Z"
        style="fill-rule:nonzero; fill:#E6DA5C" />
    </g>
    <g transform="matrix(1,0,0,1,225.744,372.43)">
      <path
        d="M0,14.676L0,11.462C0,9.158 -4.366,4.913 -7.52,4.913L-10.673,4.913C-13.887,4.913 -18.313,9.097 -18.313,11.462L-18.313,14.676C-18.313,17.041 -13.887,21.285 -10.673,21.285L-7.52,21.285C-4.366,21.285 0,16.98 0,14.676M-24.075,14.736L-24.075,11.462C-24.075,7.278 -16.13,-2.667 -12.674,-2.667L-8.793,-2.667C-6.731,-2.667 -4.609,-0.544 -2.547,1.82L0.182,1.82L0.182,-14.189L5.64,-14.189L5.64,28.259L0.182,28.259L0.182,24.378L-2.547,24.378C-4.609,26.743 -6.731,28.865 -8.793,28.865L-12.674,28.865C-16.13,28.865 -24.075,18.921 -24.075,14.736"
        style="fill-rule:nonzero; fill:#E6DA5C" />
    </g>
    <g transform="matrix(1,0,0,1,255.702,393.715)">
      <path
        d="M0,-16.372L-4.851,-16.372C-7.459,-16.372 -10.188,-13.704 -11.279,-11.036L6.064,-11.036C4.79,-14.25 2.244,-16.372 0,-16.372M-17.04,-6.549L-17.04,-9.823C-17.04,-14.007 -9.096,-23.952 -4.669,-23.952L0.06,-23.952C4.063,-23.952 11.764,-14.311 11.764,-9.217L11.764,-6.185L-11.279,-6.185C-10.612,-3.152 -7.459,0 -4.851,0L0,0C1.819,0 3.821,-1.152 4.912,-2.728L11.279,-2.728C9.945,1.577 3.275,7.58 0.06,7.58L-4.669,7.58C-9.096,7.58 -17.04,-2.364 -17.04,-6.549"
        style="fill-rule:nonzero; fill:#E6DA5C" />
    </g>
    <g transform="matrix(1,0,0,1,274.745,400.689)">
      <path
        d="M0,-30.32L18.677,-30.32L18.677,-22.74L10.248,-22.74C8.611,-22.74 5.7,-20.436 5.7,-18.737L5.7,0L0,0L0,-30.32Z"
        style="fill-rule:nonzero; fill:#E6DA5C" />
    </g>
    <g transform="matrix(1,0,0,1,296.941,380.376)">
      <path
        d="M0,10.308L5.397,10.308C6.185,12.31 8.49,13.643 10.369,13.643L15.281,13.643C16.736,13.643 19.587,12.612 19.587,11.339L19.587,10.611C19.587,9.884 18.192,8.731 16.918,8.489L6.973,6.549C4.063,6.003 1.091,1.273 1.091,-0.486L1.091,-2.548C1.091,-5.7 7.034,-10.612 10.551,-10.612L13.947,-10.612C17.646,-10.612 23.225,-5.519 24.074,-0.364L18.98,-0.364C18.313,-2.001 16.797,-3.336 14.977,-3.336L10.794,-3.336C9.338,-3.336 6.731,-2.305 6.731,-1.092L6.731,-0.182C6.731,0.485 8.004,1.637 9.278,1.88L19.283,3.88C22.497,4.548 25.287,9.095 25.287,10.793L25.287,12.855C25.287,15.705 19.162,20.92 15.706,20.92L11.096,20.92C7.64,20.92 1.212,15.887 0,10.308"
        style="fill-rule:nonzero; fill:#E6DA5C" />
    </g>
    <g transform="matrix(1,0,0,1,335.812,382.376)">
      <path
        d="M0,18.435L-11.158,-12.007L-5.094,-12.007L0.607,3.517L6.185,3.517L12.068,-12.007L18.071,-12.007L1.395,30.442L-4.669,30.442L0,18.435Z"
        style="fill-rule:nonzero; fill:#E6DA5C" />
    </g>
    <g transform="matrix(1,0,0,1,359.645,400.386)">
      <path
        d="M0,-30.017L8.49,-30.017L8.49,-27.167L14.251,-27.167C15.039,-28.44 16.676,-30.32 18.616,-30.32L20.496,-30.32C22.255,-30.32 24.681,-26.864 24.681,-24.923L24.681,0.303L19.223,0.303L19.223,-17.465C19.223,-20.436 15.888,-22.134 13.947,-22.134L10.733,-22.134C8.793,-22.134 5.458,-19.829 5.458,-17.222L5.458,0.303L0,0.303L0,-30.017Z"
        style="fill-rule:nonzero; fill:#E6DA5C" />
    </g>
    <g transform="matrix(1,0,0,1,391.119,383.892)">
      <path
        d="M0,3.274L0,-0C0,-4.245 7.641,-14.129 12.007,-14.129L16.494,-14.129C20.436,-14.129 26.864,-6.731 27.41,-2.729L21.649,-2.729C20.861,-4.548 18.495,-6.549 16.252,-6.549L12.492,-6.549C9.885,-6.549 5.761,-2.062 5.761,0.303L5.761,2.91C5.761,5.276 9.885,9.823 12.492,9.823L16.252,9.823C18.495,9.823 20.8,7.762 21.649,5.942L27.41,5.942C26.682,10.308 19.83,17.403 16.494,17.403L12.007,17.403C7.641,17.403 0,7.458 0,3.274"
        style="fill-rule:nonzero; fill:#E6DA5C" />
    </g>
    <g transform="matrix(1,0,0,1,454.672,379.465)">
      <path
        d="M0,0.001C3.456,0.001 8.308,-3.577 8.308,-5.882L8.308,-7.882C8.308,-10.187 3.456,-13.946 0,-13.946L-8.975,-13.946L-8.975,0.001L0,0.001ZM-14.736,-21.224L-0.364,-21.224C5.821,-21.224 14.371,-13.098 14.371,-8.307L14.371,-5.032C14.371,-0.242 5.821,7.278 -0.364,7.278L-8.975,7.278L-8.975,21.225L-14.736,21.225L-14.736,-21.224Z"
        style="fill-rule:nonzero; fill:#E6DA5C" />
    </g>
    <g transform="matrix(1,0,0,1,474.626,376.373)">
      <path
        d="M0,18.617L0,-6.003L5.457,-6.003L5.457,11.765C5.457,14.129 8.792,16.433 10.733,16.433L13.643,16.433C15.584,16.433 18.919,14.129 18.919,11.522L18.919,-6.003L24.377,-6.003L24.377,24.317L15.888,24.317L15.888,21.467L10.126,21.467C9.217,22.801 7.336,24.62 5.821,24.62L4.305,24.62C2.728,24.62 0,21.164 0,18.617"
        style="fill-rule:nonzero; fill:#E6DA5C" />
    </g>
    <g transform="matrix(1,0,0,1,532.052,372.37)">
      <path
        d="M0,14.796L0,11.582C0,9.218 -4.427,4.973 -7.641,4.973L-10.795,4.973C-13.948,4.973 -18.374,9.278 -18.374,11.582L-18.374,14.796C-18.374,17.1 -13.948,21.285 -10.795,21.285L-7.641,21.285C-4.427,21.285 0,17.161 0,14.796M-15.767,24.438L-18.496,24.438L-18.496,28.319L-23.953,28.319L-23.953,-14.129L-18.496,-14.129L-18.496,1.88L-15.767,1.88C-13.705,-0.485 -11.583,-2.607 -9.521,-2.607L-5.64,-2.607C-2.183,-2.607 5.76,7.337 5.76,11.522L5.76,14.796C5.76,18.98 -2.183,28.925 -5.64,28.925L-9.521,28.925C-11.583,28.925 -13.765,26.803 -15.767,24.438"
        style="fill-rule:nonzero; fill:#E6DA5C" />
    </g>
    <g transform="matrix(1,0,0,1,0,163.654)">
      <rect x="544.91" y="194.587" width="5.7" height="42.448" style="fill-rule:nonzero; fill:#E6DA5C" />
    </g>
    <g transform="matrix(1,0,0,1,0,161.532)">
      <path
        d="M559.708,208.837L565.408,208.837L565.408,239.157L559.708,239.157L559.708,208.837ZM558.434,194.587L566.62,194.587L566.62,202.774L558.434,202.774L558.434,194.587Z"
        style="fill-rule:nonzero; fill:#E6DA5C" />
    </g>
    <g transform="matrix(1,0,0,1,572.563,380.376)">
      <path
        d="M0,10.308L5.398,10.308C6.186,12.31 8.49,13.643 10.37,13.643L15.282,13.643C16.738,13.643 19.588,12.612 19.588,11.339L19.588,10.611C19.588,9.884 18.193,8.731 16.919,8.489L6.974,6.549C4.064,6.003 1.091,1.273 1.091,-0.486L1.091,-2.548C1.091,-5.7 7.034,-10.612 10.552,-10.612L13.948,-10.612C17.646,-10.612 23.225,-5.519 24.074,-0.364L18.981,-0.364C18.313,-2.001 16.798,-3.336 14.979,-3.336L10.795,-3.336C9.339,-3.336 6.731,-2.305 6.731,-1.092L6.731,-0.182C6.731,0.485 8.005,1.637 9.279,1.88L19.284,3.88C22.498,4.548 25.287,9.095 25.287,10.793L25.287,12.855C25.287,15.705 19.163,20.92 15.707,20.92L11.098,20.92C7.641,20.92 1.214,15.887 0,10.308"
        style="fill-rule:nonzero; fill:#E6DA5C" />
    </g>
    <g transform="matrix(1,0,0,1,605.129,400.689)">
      <path
        d="M0,-42.448L5.457,-42.448L5.457,-27.47L11.096,-27.47C12.128,-28.803 14.25,-30.623 15.827,-30.623L18.434,-30.623C20.617,-30.623 23.71,-26.56 23.71,-24.316L23.71,0L18.253,0L18.253,-17.767C18.253,-20.435 15.221,-22.436 13.281,-22.436L10.429,-22.436C8.49,-22.436 5.457,-20.132 5.457,-17.524L5.457,0L0,0L0,-42.448Z"
        style="fill-rule:nonzero; fill:#E6DA5C" />
    </g>
    <g transform="matrix(1,0,0,1,0,161.532)">
      <path
        d="M637.452,208.837L643.152,208.837L643.152,239.157L637.452,239.157L637.452,208.837ZM636.178,194.587L644.364,194.587L644.364,202.774L636.178,202.774L636.178,194.587Z"
        style="fill-rule:nonzero; fill:#E6DA5C" />
    </g>
    <g transform="matrix(1,0,0,1,652.249,400.386)">
      <path
        d="M0,-30.017L8.49,-30.017L8.49,-27.167L14.25,-27.167C15.039,-28.44 16.676,-30.32 18.617,-30.32L20.496,-30.32C22.255,-30.32 24.681,-26.864 24.681,-24.923L24.681,0.303L19.222,0.303L19.222,-17.465C19.222,-20.436 15.888,-22.134 13.946,-22.134L10.733,-22.134C8.793,-22.134 5.457,-19.829 5.457,-17.222L5.457,0.303L0,0.303L0,-30.017Z"
        style="fill-rule:nonzero; fill:#E6DA5C" />
    </g>
    <g transform="matrix(1,0,0,1,707.373,396.991)">
      <path
        d="M0,-11.401L0,-14.008C0,-16.312 -3.881,-19.891 -6.731,-19.891L-10.794,-19.891C-13.705,-19.891 -17.586,-16.373 -17.586,-14.008L-17.586,-11.401C-17.586,-9.036 -13.705,-5.458 -10.794,-5.458L-6.731,-5.458C-3.881,-5.458 0,-9.097 0,-11.401M-21.71,4.912L-16.251,4.912C-15.464,6.912 -13.462,8.307 -11.522,8.307L-4.972,8.307C-2.79,8.307 0.303,5.7 0.303,3.881L0.303,-2.305L-2.426,-2.305C-3.941,-0.606 -6.61,1.88 -8.369,1.88L-11.946,1.88C-15.706,1.88 -23.346,-7.459 -23.346,-11.037L-23.346,-14.311C-23.346,-17.889 -15.706,-27.228 -11.946,-27.228L-8.369,-27.228C-6.61,-27.228 -3.941,-24.741 -2.426,-23.044L0.303,-23.044L0.303,-26.621L5.76,-26.621L5.76,5.7C5.76,11.946 -2.183,15.827 -5.398,15.827L-10.855,15.827C-14.372,15.827 -20.496,10.733 -21.71,4.912"
        style="fill-rule:nonzero; fill:#E6DA5C" />
    </g>
  </g>
</svg>